<svg width="20" height="25" viewBox="0 0 20 25" fill="none" xmlns="http://www.w3.org/2000/svg">
<path id="icn_account" fill-rule="evenodd" clip-rule="evenodd" d="M20 23.3333C20 23.9475 19.503 24.4444 18.8889 24.4444C18.2747 24.4444 17.7778 23.9475 17.7778 23.3333C17.7778 19.0386 14.2947 15.5556 10 15.5556C5.70528 15.5556 2.22222 19.0386 2.22222 23.3333C2.22222 23.9475 1.72526 24.4444 1.11111 24.4444C0.496961 24.4444 0 23.9475 0 23.3333C0 17.8103 4.477 13.3333 10 13.3333C15.523 13.3333 20 17.8103 20 23.3333ZM10 12.2222C6.62544 12.2222 3.88889 9.48567 3.88889 6.11111C3.88889 2.73656 6.62544 0 10 0C13.3746 0 16.1111 2.73656 16.1111 6.11111C16.1111 9.48567 13.3746 12.2222 10 12.2222ZM10 10C12.1484 10 13.8889 8.25956 13.8889 6.11111C13.8889 3.96267 12.1484 2.22222 10 2.22222C7.85156 2.22222 6.11111 3.96267 6.11111 6.11111C6.11111 8.25956 7.85156 10 10 10Z" fill="black"/>
</svg>
