<svg width="16" height="20" viewBox="0 0 16 20" fill="none" xmlns="http://www.w3.org/2000/svg">
<path fill-rule="evenodd" clip-rule="evenodd" d="M16 18.6667C16 19.158 15.6024 19.5556 15.1111 19.5556C14.6198 19.5556 14.2222 19.158 14.2222 18.6667C14.2222 15.2309 11.4358 12.4444 8 12.4444C4.56422 12.4444 1.77778 15.2309 1.77778 18.6667C1.77778 19.158 1.38021 19.5556 0.888889 19.5556C0.397569 19.5556 0 19.158 0 18.6667C0 14.2483 3.5816 10.6667 8 10.6667C12.4184 10.6667 16 14.2483 16 18.6667ZM8 9.77778C5.30036 9.77778 3.11111 7.58853 3.11111 4.88889C3.11111 2.18924 5.30036 0 8 0C10.6996 0 12.8889 2.18924 12.8889 4.88889C12.8889 7.58853 10.6996 9.77778 8 9.77778ZM8 8C9.71876 8 11.1111 6.60764 11.1111 4.88889C11.1111 3.17013 9.71876 1.77778 8 1.77778C6.28124 1.77778 4.88889 3.17013 4.88889 4.88889C4.88889 6.60764 6.28124 8 8 8Z" fill="#DF0052"/>
</svg>
