<svg width="22" height="22" viewBox="0 0 22 22" fill="none" xmlns="http://www.w3.org/2000/svg">
<path fill-rule="evenodd" clip-rule="evenodd" d="M8.5255 0C3.83317 0 0 3.83317 0 8.5255C0 13.2178 3.83317 17.051 8.5255 17.051C10.3754 17.051 12.0933 16.4526 13.4928 15.4439L19.6548 21.5973C20.192 22.1345 21.06 22.1345 21.5971 21.5973C22.1343 21.0602 22.1343 20.1922 21.5971 19.655L15.4437 13.493C16.4524 12.0922 17.0508 10.3743 17.0508 8.52569C17.0508 3.83337 13.2176 0.000192511 8.52531 0.000192511L8.5255 0ZM8.5255 2.75016C11.7311 2.75016 14.3008 5.31986 14.3008 8.5255C14.3008 11.7311 11.7311 14.3008 8.5255 14.3008C5.31986 14.3008 2.75016 11.7311 2.75016 8.5255C2.75016 5.31986 5.31986 2.75016 8.5255 2.75016Z" fill="white"/>
</svg>
