<svg width="35" height="17" viewBox="0 0 35 17" fill="none" xmlns="http://www.w3.org/2000/svg">
<path fill-rule="evenodd" clip-rule="evenodd" d="M11.5154 12.5662C11.9538 12.1278 12.5601 11.8559 13.2303 11.8559C13.8991 11.8559 14.5069 12.1278 14.9467 12.5662C15.3851 13.0046 15.6571 13.6109 15.6571 14.2811C15.6571 14.9513 15.3866 15.5577 14.9467 15.9961C14.5069 16.4345 13.9005 16.7064 13.2303 16.7064C12.5601 16.7064 11.9538 16.4344 11.5154 15.9961C11.077 15.5577 10.8051 14.9513 10.8051 14.2811C10.8051 13.6109 11.077 13.0046 11.5154 12.5662ZM12.1915 14.2811C12.1915 14.8533 12.6582 15.3199 13.2303 15.3199C13.8025 15.3199 14.2676 14.8533 14.2691 14.2811C14.2691 13.709 13.8025 13.2424 13.2303 13.2424C12.6582 13.2424 12.1915 13.709 12.1915 14.2811Z" fill="white"/>
<path fill-rule="evenodd" clip-rule="evenodd" d="M34.1869 7.54319C34.4812 7.84038 34.6283 8.20001 34.6283 8.61761L34.6251 12.2599C34.6251 13.0698 33.9653 13.7311 33.1554 13.7311H32.4406C32.3306 13.1604 32.0498 12.6507 31.6545 12.2554C31.1358 11.7368 30.4195 11.4158 29.6275 11.4158C28.8354 11.4158 28.1191 11.7368 27.6005 12.2554C27.2052 12.6507 26.9258 13.1604 26.8143 13.7311H16.0435C15.9335 13.1604 15.6527 12.6507 15.2573 12.2554C14.7387 11.7368 14.0224 11.4158 13.2304 11.4158C12.4383 11.4158 11.722 11.7368 11.2034 12.2554C10.808 12.6507 10.5287 13.1604 10.4172 13.7311H8.7677V4.30656H4.54868C4.30495 4.30656 4.1073 4.10892 4.1073 3.86518C4.1073 3.62145 4.30497 3.4238 4.54868 3.4238L8.7677 3.42529V0.031088L26.2559 0.0296021V1.91542H26.5175C27.9218 1.91542 29.1314 2.42067 30.1182 3.4208L34.1869 7.54319ZM26.3181 3.29153V6.85217L31.8225 6.85217L28.9366 3.92461C28.5235 3.50552 28.0182 3.2945 27.4297 3.29301L26.3181 3.29153Z" fill="white"/>
<path fill-rule="evenodd" clip-rule="evenodd" d="M27.9144 12.5662C28.3528 12.1278 28.9592 11.8559 29.6294 11.8559C30.2996 11.8559 30.9059 12.1278 31.3443 12.5662C31.7827 13.0046 32.0546 13.6109 32.0546 14.2811C32.0546 14.9513 31.7827 15.5577 31.3443 15.9961C30.9059 16.4345 30.2996 16.7064 29.6294 16.7064C28.9592 16.7064 28.3528 16.4359 27.9144 15.9961C27.4761 15.5577 27.2041 14.9513 27.2041 14.2811C27.2041 13.6109 27.4761 13.0046 27.9144 12.5662ZM28.6173 14.2811C28.6173 14.8533 29.0825 15.3199 29.6546 15.3199C30.2268 15.3199 30.6934 14.8533 30.6934 14.2811C30.6934 13.709 30.2268 13.2424 29.6546 13.2424C29.084 13.2424 28.6173 13.709 28.6173 14.2811Z" fill="white"/>
<path d="M5.61298 6.87598C5.61298 6.63227 5.41534 6.4346 5.1716 6.4346H0.812962C0.569248 6.4346 0.371582 6.63225 0.371582 6.87598C0.371582 7.11971 0.569229 7.31736 0.812962 7.31736H5.1716C5.41532 7.31736 5.61298 7.11971 5.61298 6.87598Z" fill="white"/>
<path d="M7.17041 9.83347H1.7728C1.52909 9.83347 1.33142 10.0311 1.33142 10.2748C1.33142 10.5186 1.52907 10.7162 1.7728 10.7162H7.17041C7.41412 10.7162 7.61179 10.5186 7.61179 10.2748C7.61179 10.0311 7.41414 9.83347 7.17041 9.83347Z" fill="white"/>
</svg>
