<svg width="107" height="60" viewBox="0 0 107 60" fill="none" xmlns="http://www.w3.org/2000/svg">
<path fill-rule="evenodd" clip-rule="evenodd" d="M23.232 18.968C23.552 19.096 23.728 19.352 23.76 19.736C23.792 20.12 23.776 20.472 23.712 20.792C23.4559 22.2 22.976 23.88 22.2719 25.832C21.5679 27.784 20.64 29.672 19.4879 31.496C18.3359 33.32 16.944 34.904 15.312 36.248C13.6799 37.592 11.872 38.328 9.88795 38.456C8.41594 38.584 6.99196 38.024 5.61595 36.776C4.23994 35.528 3.08795 33.816 2.15995 31.64C1.23195 29.464 0.591952 26.968 0.23995 24.152C-0.112052 21.336 -5.26309e-05 18.392 0.57595 15.32C0.959952 12.568 1.50395 10.136 2.20795 8.02399C2.84795 6.16798 3.72794 4.488 4.84795 2.98399C5.96796 1.47998 7.42394 0.663988 9.21595 0.535988C10.944 0.471987 12.4479 0.951982 13.728 1.97599C15.008 2.99999 15.9999 4.23198 16.704 5.67199C17.408 7.112 17.8079 8.61598 17.9039 10.184C18 11.752 17.792 13.016 17.28 13.976C16.5759 15.256 15.776 16.36 14.88 17.288C13.9839 18.216 13.12 19 12.288 19.64C11.3279 20.344 10.368 20.984 9.40795 21.56C9.40795 23.288 9.42395 24.968 9.45595 26.6C9.48795 28.232 9.56795 29.64 9.69595 30.824C9.82395 32.008 10.0319 32.936 10.32 33.608C10.608 34.28 11.0079 34.52 11.5199 34.328C12.8 33.944 14.0479 33.176 15.264 32.024C16.352 31 17.4559 29.528 18.576 27.608C19.696 25.688 20.7039 23.032 21.6 19.64C21.728 19.32 21.9519 19.096 22.2719 18.968C22.592 18.84 22.9119 18.84 23.232 18.968ZM14.0159 6.19999C13.5039 5.55998 12.992 5.71998 12.4799 6.67999C11.9679 7.63999 11.52 8.82398 11.136 10.232C10.6879 11.896 10.272 13.88 9.88795 16.184C10.912 16.056 11.7919 15.576 12.528 14.744C13.264 13.912 13.8399 12.968 14.2559 11.912C14.672 10.856 14.8639 9.79999 14.8319 8.74399C14.7999 7.68798 14.528 6.83999 14.0159 6.19999ZM55.68 21.176C55.808 21.944 55.488 22.52 54.7199 22.904C53.6959 23.544 52.64 24.2 51.5519 24.872C50.4639 25.544 49.376 26.296 48.2879 27.128C48.0319 30.456 47.68 34.008 47.2319 37.784C46.7839 41.56 46.144 45.032 45.312 48.2C44.4799 51.368 43.456 54.008 42.24 56.12C41.0239 58.232 39.52 59.288 37.728 59.288C35.7439 59.352 34.304 58.424 33.408 56.504C32.5119 54.584 32.16 52.168 32.352 49.256C32.5439 46.344 33.3119 43.176 34.6559 39.752C36 36.328 37.9199 33.112 40.4159 30.104C40.4799 28.824 40.5119 27.608 40.5119 26.456C40.5119 25.304 40.5439 24.28 40.6079 23.384C40.1599 24.536 39.584 25.816 38.88 27.224C38.1759 28.632 37.36 29.912 36.4319 31.064C35.5039 32.216 34.464 33.176 33.312 33.944C32.1599 34.712 30.912 35.032 29.5679 34.904C27.7119 34.776 26.16 34.12 24.9119 32.936C23.6639 31.752 22.72 30.184 22.08 28.232C21.4399 26.28 21.1679 23.992 21.264 21.368C21.36 18.744 21.8239 15.896 22.656 12.824C23.488 9.75197 24.5279 7.368 25.7759 5.67199C27.024 3.97598 28.2879 2.72799 29.5679 1.92799C30.848 1.12798 32.0479 0.647988 33.1679 0.487988C34.288 0.327987 35.1039 0.279987 35.616 0.343988C36.448 0.471988 37.4559 0.871984 38.6399 1.54399C39.824 2.21599 40.7679 3.57598 41.472 5.62399C41.6 5.17599 41.6959 4.75999 41.7599 4.37599C41.8239 3.99199 41.9199 3.60799 42.048 3.22399C42.2399 2.71199 42.4959 2.26399 42.8159 1.87999C43.136 1.55999 43.5039 1.30399 43.92 1.11199C44.336 0.919987 44.8959 0.887987 45.5999 1.01599C46.304 1.14399 46.9759 1.39999 47.616 1.78399C48.256 2.16799 48.7999 2.72798 49.2479 3.46399C49.696 4.19999 49.9839 5.15998 50.1119 6.34399C50.24 7.52799 50.176 8.98398 49.92 10.712C49.792 11.864 49.632 13.112 49.4399 14.456C49.3119 15.608 49.184 16.92 49.056 18.392C48.9279 19.864 48.7999 21.4 48.672 23C49.568 22.488 50.4639 22.024 51.3599 21.608C52.256 21.192 53.2159 20.824 54.2399 20.504C55.072 20.312 55.5519 20.536 55.68 21.176ZM31.2 28.76C32.16 28.888 33.1199 28.616 34.0799 27.944C35.04 27.272 35.9199 26.408 36.72 25.352C37.52 24.296 38.1919 23.16 38.736 21.944C39.28 20.728 39.6479 19.608 39.84 18.584C40.096 16.728 40.2239 15 40.2239 13.4C40.2239 12.056 40.128 10.792 39.936 9.60799C39.7439 8.42398 39.296 7.67199 38.5919 7.35199C38.0159 7.15999 37.408 7.09599 36.768 7.15999C36.1279 7.22399 35.456 7.59198 34.7519 8.26399C34.0479 8.93599 33.344 9.97598 32.6399 11.384C31.9359 12.792 31.264 14.712 30.624 17.144C30.1119 19.256 29.76 21.144 29.568 22.808C29.4399 24.28 29.4559 25.624 29.6159 26.84C29.776 28.056 30.3039 28.696 31.2 28.76ZM37.632 52.184C37.952 52.12 38.2239 51.64 38.4479 50.744C38.672 49.848 38.8799 48.68 39.0719 47.24C39.264 45.8 39.4399 44.168 39.5999 42.344C39.7599 40.52 39.9039 38.648 40.0319 36.728C39.4559 37.88 38.912 39.128 38.3999 40.472C37.8879 41.816 37.472 43.256 37.152 44.792C36.8319 46.264 36.608 47.576 36.4799 48.728C36.3519 49.688 36.3519 50.536 36.4799 51.272C36.608 52.008 36.9919 52.312 37.632 52.184ZM76.224 18.968C76.544 19.096 76.7199 19.352 76.752 19.736C76.784 20.12 76.768 20.472 76.7039 20.792C76.448 22.2 75.968 23.88 75.2639 25.832C74.5599 27.784 73.632 29.672 72.4799 31.496C71.3279 33.32 69.936 34.904 68.304 36.248C66.6719 37.592 64.864 38.328 62.88 38.456C61.4079 38.584 59.984 38.024 58.608 36.776C57.2319 35.528 56.08 33.816 55.152 31.64C54.2239 29.464 53.584 26.968 53.232 24.152C52.8799 21.336 52.9919 18.392 53.568 15.32C53.952 12.568 54.4959 10.136 55.2 8.02399C55.84 6.16798 56.7199 4.488 57.84 2.98399C58.96 1.47998 60.4159 0.663988 62.208 0.535988C63.936 0.471987 65.4399 0.951982 66.7199 1.97599C68 2.99999 68.992 4.23198 69.696 5.67199C70.4 7.112 70.7999 8.61598 70.896 10.184C70.992 11.752 70.784 13.016 70.2719 13.976C69.5679 15.256 68.768 16.36 67.8719 17.288C66.9759 18.216 66.112 19 65.28 19.64C64.3199 20.344 63.36 20.984 62.4 21.56C62.4 23.288 62.416 24.968 62.448 26.6C62.4799 28.232 62.56 29.64 62.688 30.824C62.816 32.008 63.0239 32.936 63.312 33.608C63.6 34.28 63.9999 34.52 64.5119 34.328C65.792 33.944 67.0399 33.176 68.256 32.024C69.344 31 70.4479 29.528 71.5679 27.608C72.688 25.688 73.6959 23.032 74.5919 19.64C74.72 19.32 74.9439 19.096 75.2639 18.968C75.584 18.84 75.9039 18.84 76.224 18.968ZM67.0079 6.19999C66.4959 5.55998 65.984 5.71998 65.472 6.67999C64.9599 7.63999 64.512 8.82398 64.128 10.232C63.68 11.896 63.264 13.88 62.88 16.184C63.904 16.056 64.784 15.576 65.52 14.744C66.256 13.912 66.8319 12.968 67.248 11.912C67.664 10.856 67.8559 9.79999 67.824 8.74399C67.792 7.68798 67.52 6.83999 67.0079 6.19999ZM98.3039 10.52L98.4959 11.672C98.56 11.992 98.6239 12.344 98.688 12.728C98.752 13.112 98.784 13.496 98.784 13.88C100.128 13.368 101.296 12.52 102.288 11.336C103.28 10.152 104.032 9.04799 104.544 8.02399C104.672 7.70399 104.912 7.46399 105.264 7.30399C105.616 7.14399 105.952 7.15999 106.272 7.35199C106.912 7.67199 107.008 8.27998 106.56 9.17599C105.536 11.48 104.352 13.256 103.008 14.504C101.664 15.752 100.256 16.568 98.784 16.952C98.6559 21.688 97.952 25.288 96.672 27.752C95.3919 30.216 93.984 31.96 92.448 32.984C90.6559 34.2 88.64 34.808 86.3999 34.808C84.7999 34.808 83.12 34.392 81.3599 33.56C79.5999 32.728 78.096 31.416 76.8479 29.624C75.5999 27.832 74.768 25.544 74.352 22.76C73.9359 19.976 74.2719 16.6 75.3599 12.632C75.8719 10.968 76.5759 9.39999 77.4719 7.92799C78.24 6.64798 79.2319 5.41599 80.448 4.23199C81.664 3.04798 83.1359 2.19999 84.864 1.68799C85.312 1.55999 85.7279 1.55999 86.1119 1.68799C86.432 1.81599 86.7679 2.00799 87.1199 2.26399C87.472 2.51999 87.7759 2.90399 88.032 3.41599C88.224 3.86399 88.256 4.29599 88.128 4.71199C87.9999 5.12799 87.776 5.59199 87.4559 6.10399C87.1359 6.67999 86.72 7.38398 86.2079 8.21599C85.6959 9.04799 85.28 10.008 84.9599 11.096C83.5519 15.32 82.8159 18.76 82.752 21.416C82.688 24.072 82.9759 26.136 83.616 27.608C84.256 29.08 85.0399 30.072 85.9679 30.584C86.896 31.096 87.6479 31.288 88.224 31.16C89.12 30.904 89.9839 30.424 90.8159 29.72C91.52 29.08 92.2239 28.12 92.9279 26.84C93.632 25.56 94.2399 23.8 94.752 21.56C95.0079 19.96 95.2 18.52 95.3279 17.24C94.2399 17.112 93.264 16.84 92.3999 16.424C91.5359 16.008 90.848 15.48 90.336 14.84C89.7599 14.2 89.312 13.304 88.992 12.152C88.672 11 88.576 9.86399 88.7039 8.74399C88.8319 7.62398 89.1999 6.61599 89.808 5.71999C90.416 4.82398 91.3919 4.27999 92.7359 4.08799C93.568 3.95999 94.3039 4.08799 94.9439 4.47199C95.584 4.85599 96.1279 5.36798 96.576 6.00799C97.0239 6.64799 97.3759 7.38398 97.632 8.21599C97.8879 9.04799 98.1119 9.81598 98.3039 10.52ZM93.12 11.192C92.992 12.024 93.2 12.664 93.7439 13.112C94.288 13.56 94.752 13.88 95.136 14.072C94.944 12.408 94.592 11.32 94.08 10.808C93.5679 10.296 93.248 10.424 93.12 11.192Z" fill="black"/>
<path fill-rule="evenodd" clip-rule="evenodd" d="M53.5787 26.5107C53.037 24.2992 52.5494 19.825 53.7148 18.0695C54.8801 16.314 56.4908 17.4401 56.4908 17.4401L56.373 21.2727L55.1972 24.822C55.1972 24.822 54.1205 28.7221 53.5787 26.5107Z" fill="black"/>
<path fill-rule="evenodd" clip-rule="evenodd" d="M74.7148 25.2995C74.037 23.0858 74.037 18.8889 74.7148 17.0695C75.3925 15.2501 77.4908 16.4401 77.4908 16.4401L77.373 20.2727L76.1972 23.822C76.1972 23.822 75.3925 27.5133 74.7148 25.2995Z" fill="black"/>
<path fill-rule="evenodd" clip-rule="evenodd" d="M21.7749 27.1991C21.2331 24.9876 20.7456 20.5134 21.9109 18.7579C23.0763 17.0024 24.6869 18.1285 24.6869 18.1285L24.5692 21.9611L23.3934 25.5104C23.3934 25.5104 22.3166 29.4105 21.7749 27.1991Z" fill="black"/>
</svg>
